<svg width="1504" height="1077" viewBox="0 0 1504 1077" fill="none" xmlns="http://www.w3.org/2000/svg">
<g clip-path="url(#clip0_256_1051)">
<g filter="url(#filter0_d_256_1051)">
<path d="M589 1064.5C589 1162.81 457.148 1242.5 294.5 1242.5C131.852 1242.5 0 1162.81 0 1064.5C0 966.193 131.852 886.5 294.5 886.5C457.148 886.5 589 966.193 589 1064.5Z" fill="#1F237E"/>
<path d="M613 911C613 970.647 637.805 1056.5 558 1056.5C478.195 1056.5 376.5 995.643 376.5 935.996C350 868.496 383.195 903.996 463 903.996C539 909.497 594.004 880.001 613 911Z" fill="#1F237E"/>
<path d="M797.5 852C799.228 951.022 754.271 1056.55 642.5 1058.5C530.729 1060.45 428.516 1103.18 426.788 1004.16C425.059 905.138 532.688 1053 553.997 898.606C684.5 888.495 745.774 792.737 797.5 852Z" fill="#1F237E"/>
<path d="M1070 879.5C1070 966.209 972.622 1036.5 852.5 1036.5C732.378 1036.5 621.5 1033.71 621.5 947C633 859.5 843.5 803 852.5 720C1007 720 1070 792.791 1070 879.5Z" fill="#1F237E"/>
<path d="M1868.5 256C1868.5 448.047 1844.24 574.5 1589 574.5C985 638.5 1179.5 972 1118.5 813.5C849.244 113.876 1449 164.5 1502.5 0C1830.79 0 1868.5 63.9532 1868.5 256Z" fill="#1F237E"/>
<path d="M1249 416.995C1249 523.862 1182.85 951.218 1063 951.218C943.154 951.218 840.927 833.85 849.5 742C867 554.5 975.5 683 1034.5 534C1108 212.006 1249 299.998 1249 416.995Z" fill="#1F237E"/>
<path d="M1639 677.5H913V1092.5H1639V677.5Z" fill="#1F237E"/>
<path d="M1684 512.5H1181V743.5H1684V512.5Z" fill="#1F237E"/>
</g>
<path d="M976 986H472V1093H976V986Z" fill="#1F237E"/>
</g>
<defs>
<filter id="filter0_d_256_1051" x="-4" y="0" width="1876.5" height="1250.5" filterUnits="userSpaceOnUse" color-interpolation-filters="sRGB">
<feFlood flood-opacity="0" result="BackgroundImageFix"/>
<feColorMatrix in="SourceAlpha" type="matrix" values="0 0 0 0 0 0 0 0 0 0 0 0 0 0 0 0 0 0 127 0" result="hardAlpha"/>
<feOffset dy="4"/>
<feGaussianBlur stdDeviation="2"/>
<feComposite in2="hardAlpha" operator="out"/>
<feColorMatrix type="matrix" values="0 0 0 0 0 0 0 0 0 0 0 0 0 0 0 0 0 0 0.25 0"/>
<feBlend mode="normal" in2="BackgroundImageFix" result="effect1_dropShadow_256_1051"/>
<feBlend mode="normal" in="SourceGraphic" in2="effect1_dropShadow_256_1051" result="shape"/>
</filter>
<clipPath id="clip0_256_1051">
<rect width="1504" height="1077" fill="white"/>
</clipPath>
</defs>
</svg>
